# MagicaVoxel @ Ephtracy

# group
o 

# material
mtllib kabifix.mtl
usemtl palette

# normals
vn -1 0 0
vn 1 0 0
vn 0 0 1
vn 0 0 -1
vn 0 -1 0
vn 0 1 0

# texcoords
vt 0.974609 0.5
vt 0.978516 0.5

# verts
v -2 0.1 -0.6
v -2 0.1 -1.2
v -2 0.5 -0.6
v -2 0.5 -1.2
v -1.8 0 0.4
v -1.8 0 -1.8
v -1.8 0.1 -0.6
v -1.8 0.1 -1.2
v -1.8 0.5 -0.6
v -1.8 0.5 -1.2
v -1.8 0.6 0.4
v -1.8 0.6 -1.8
v -1.7 0 -1.8
v -1.7 0 -1.9
v -1.7 0.6 -1.8
v -1.7 0.6 -1.9
v -1.6 0 -1.9
v -1.6 0 -2
v -1.6 0.6 -1.9
v -1.6 0.6 -2
v -1.2 0.1 -0.6
v -1.2 0.1 -1.2
v -1.2 0.2 -0.6
v -1.2 0.2 -1.2
v -1.2 0.4 -0.6
v -1.2 0.4 -1.2
v -1.2 0.5 -0.6
v -1.2 0.5 -1.2
v -1 0.1 -0.6
v -1 0.1 -1.2
v -1 0.2 -0.6
v -1 0.2 -1.2
v -1 0.4 -0.6
v -1 0.4 -1.2
v -1 0.5 -0.6
v -1 0.5 -1.2
v -0.8 0.1 -0.6
v -0.8 0.1 -1.2
v -0.8 0.2 -0.6
v -0.8 0.2 -1.2
v -0.8 0.4 -0.6
v -0.8 0.4 -1.2
v -0.8 0.5 -0.6
v -0.8 0.5 -1.2
v -0.6 0.1 -0.6
v -0.6 0.1 -1.2
v -0.6 0.2 -0.6
v -0.6 0.2 -1.2
v -0.6 0.4 -0.6
v -0.6 0.4 -1.2
v -0.6 0.5 -0.6
v -0.6 0.5 -1.2
v -0.4 0.1 -0.6
v -0.4 0.1 -1.2
v -0.4 0.2 -0.6
v -0.4 0.2 -1.2
v -0.4 0.4 -0.6
v -0.4 0.4 -1.2
v -0.4 0.5 -0.6
v -0.4 0.5 -1.2
v -0.2 0.1 -0.6
v -0.2 0.1 -1.2
v -0.2 0.2 -0.6
v -0.2 0.2 -1.2
v -0.2 0.4 -0.6
v -0.2 0.4 -1.2
v -0.2 0.5 -0.6
v -0.2 0.5 -1.2
v 2.38419e-07 0.1 -0.6
v 2.38419e-07 0.1 -1.2
v 2.38419e-07 0.2 -0.6
v 2.38419e-07 0.2 -1.2
v 2.38419e-07 0.4 -0.6
v 2.38419e-07 0.4 -1.2
v 2.38419e-07 0.5 -0.6
v 2.38419e-07 0.5 -1.2
v 0.5 0.1 -0.6
v 0.5 0.1 -1.2
v 0.5 0.2 -0.7
v 0.5 0.2 -1.1
v 0.5 0.4 -0.7
v 0.5 0.4 -1.1
v 0.5 0.5 -0.6
v 0.5 0.5 -1.2
v 0.6 0 0.4
v 0.6 0 -0.6
v 0.6 0 -1.2
v 0.6 0 -1.6
v 0.6 0.1 -0.6
v 0.6 0.1 -1.2
v 0.6 0.5 -0.6
v 0.6 0.5 -1.2
v 0.6 0.6 0.4
v 0.6 0.6 -0.6
v 0.6 0.6 -1.2
v 0.6 0.6 -1.6
v 0.7 0 -0.6
v 0.7 0 -0.7
v 0.7 0 -1.1
v 0.7 0 -1.2
v 0.7 0.6 -0.6
v 0.7 0.6 -0.7
v 0.7 0.6 -1.1
v 0.7 0.6 -1.2
v 0.8 0 -0.7
v 0.8 0 -0.8
v 0.8 0 -1
v 0.8 0 -1.1
v 0.8 0.6 -0.7
v 0.8 0.6 -0.8
v 0.8 0.6 -1
v 0.8 0.6 -1.1
v 0.9 0 -0.8
v 0.9 0 -1
v 0.9 0.6 -0.8
v 0.9 0.6 -1
v -1.4 0 0.4
v -1.4 0 -1.6
v -1.4 0.1 -0.6
v -1.4 0.1 -1.2
v -1.4 0.5 -0.6
v -1.4 0.5 -1.2
v -1.4 0.6 0.4
v -1.4 0.6 -1.6
v -1.3 0.1 -0.6
v -1.3 0.1 -1.2
v -1.3 0.2 -0.6
v -1.3 0.2 -1.2
v -1.3 0.4 -0.6
v -1.3 0.4 -1.2
v -1.3 0.5 -0.6
v -1.3 0.5 -1.2
v -1.1 0.1 -0.6
v -1.1 0.1 -1.2
v -1.1 0.2 -0.6
v -1.1 0.2 -1.2
v -1.1 0.4 -0.6
v -1.1 0.4 -1.2
v -1.1 0.5 -0.6
v -1.1 0.5 -1.2
v -0.9 0.1 -0.6
v -0.9 0.1 -1.2
v -0.9 0.2 -0.6
v -0.9 0.2 -1.2
v -0.9 0.4 -0.6
v -0.9 0.4 -1.2
v -0.9 0.5 -0.6
v -0.9 0.5 -1.2
v -0.7 0.1 -0.6
v -0.7 0.1 -1.2
v -0.7 0.2 -0.6
v -0.7 0.2 -1.2
v -0.7 0.4 -0.6
v -0.7 0.4 -1.2
v -0.7 0.5 -0.6
v -0.7 0.5 -1.2
v -0.5 0.1 -0.6
v -0.5 0.1 -1.2
v -0.5 0.2 -0.6
v -0.5 0.2 -1.2
v -0.5 0.4 -0.6
v -0.5 0.4 -1.2
v -0.5 0.5 -0.6
v -0.5 0.5 -1.2
v -0.3 0.1 -0.6
v -0.3 0.1 -1.2
v -0.3 0.2 -0.6
v -0.3 0.2 -1.2
v -0.3 0.4 -0.6
v -0.3 0.4 -1.2
v -0.3 0.5 -0.6
v -0.3 0.5 -1.2
v -0.0999999 0.1 -0.6
v -0.0999999 0.1 -1.2
v -0.0999999 0.2 -0.6
v -0.0999999 0.2 -1.2
v -0.0999999 0.4 -0.6
v -0.0999999 0.4 -1.2
v -0.0999999 0.5 -0.6
v -0.0999999 0.5 -1.2
v 0.3 0.1 -0.6
v 0.3 0.1 -1.2
v 0.3 0.2 -0.7
v 0.3 0.2 -1.1
v 0.3 0.4 -0.7
v 0.3 0.4 -1.1
v 0.3 0.5 -0.6
v 0.3 0.5 -1.2
v 0.6 0.1 -0.6
v 0.6 0.1 -1.2
v 0.6 0.5 -0.6
v 0.6 0.5 -1.2
v 1 0 -1.9
v 1 0 -2
v 1 0.6 -1.9
v 1 0.6 -2
v 1.1 0 -1.8
v 1.1 0 -1.9
v 1.1 0.6 -1.8
v 1.1 0.6 -1.9
v 1.2 0 -1.7
v 1.2 0 -1.8
v 1.2 0.6 -1.7
v 1.2 0.6 -1.8
v 1.3 0 -1.6
v 1.3 0 -1.7
v 1.3 0.6 -1.6
v 1.3 0.6 -1.7
v 1.4 0 0.4
v 1.4 0 -0.6
v 1.4 0 -1.2
v 1.4 0 -1.6
v 1.4 0.6 0.4
v 1.4 0.6 -0.6
v 1.4 0.6 -1.2
v 1.4 0.6 -1.6
v 1.8 0 -0.6
v 1.8 0 -0.7
v 1.8 0 -1.1
v 1.8 0 -1.2
v 1.8 0.6 -0.6
v 1.8 0.6 -0.7
v 1.8 0.6 -1.1
v 1.8 0.6 -1.2
v 1.9 0 -0.7
v 1.9 0 -0.8
v 1.9 0 -1
v 1.9 0 -1.1
v 1.9 0.6 -0.7
v 1.9 0.6 -0.8
v 1.9 0.6 -1
v 1.9 0.6 -1.1
v 2 0 -0.8
v 2 0 -1
v 2 0.6 -0.8
v 2 0.6 -1
v -1.8 0 0.4
v -1.8 0.6 0.4
v -1.4 0 0.4
v -1.4 0.6 0.4
v 0.6 0 0.4
v 0.6 0.6 0.4
v 1.4 0 0.4
v 1.4 0.6 0.4
v -2 0.1 -0.6
v -2 0.5 -0.6
v -1.8 0.1 -0.6
v -1.8 0.5 -0.6
v -1.4 0.1 -0.6
v -1.4 0.5 -0.6
v -1.3 0.1 -0.6
v -1.3 0.2 -0.6
v -1.3 0.4 -0.6
v -1.3 0.5 -0.6
v -1.2 0.1 -0.6
v -1.2 0.2 -0.6
v -1.2 0.4 -0.6
v -1.2 0.5 -0.6
v -1.1 0.1 -0.6
v -1.1 0.2 -0.6
v -1.1 0.4 -0.6
v -1.1 0.5 -0.6
v -1 0.1 -0.6
v -1 0.2 -0.6
v -1 0.4 -0.6
v -1 0.5 -0.6
v -0.9 0.1 -0.6
v -0.9 0.2 -0.6
v -0.9 0.4 -0.6
v -0.9 0.5 -0.6
v -0.8 0.1 -0.6
v -0.8 0.2 -0.6
v -0.8 0.4 -0.6
v -0.8 0.5 -0.6
v -0.7 0.1 -0.6
v -0.7 0.2 -0.6
v -0.7 0.4 -0.6
v -0.7 0.5 -0.6
v -0.6 0.1 -0.6
v -0.6 0.2 -0.6
v -0.6 0.4 -0.6
v -0.6 0.5 -0.6
v -0.5 0.1 -0.6
v -0.5 0.2 -0.6
v -0.5 0.4 -0.6
v -0.5 0.5 -0.6
v -0.4 0.1 -0.6
v -0.4 0.2 -0.6
v -0.4 0.4 -0.6
v -0.4 0.5 -0.6
v -0.3 0.1 -0.6
v -0.3 0.2 -0.6
v -0.3 0.4 -0.6
v -0.3 0.5 -0.6
v -0.2 0.1 -0.6
v -0.2 0.2 -0.6
v -0.2 0.4 -0.6
v -0.2 0.5 -0.6
v -0.0999999 0.1 -0.6
v -0.0999999 0.2 -0.6
v -0.0999999 0.4 -0.6
v -0.0999999 0.5 -0.6
v 2.38419e-07 0.1 -0.6
v 2.38419e-07 0.2 -0.6
v 2.38419e-07 0.4 -0.6
v 2.38419e-07 0.5 -0.6
v 0.3 0.1 -0.6
v 0.3 0.5 -0.6
v 0.5 0.1 -0.6
v 0.5 0.5 -0.6
v 0.6 0.1 -0.6
v 0.6 0.5 -0.6
v 1.4 0 -0.6
v 1.4 0.6 -0.6
v 1.8 0 -0.6
v 1.8 0.6 -0.6
v 0.3 0.2 -0.7
v 0.3 0.4 -0.7
v 0.5 0.2 -0.7
v 0.5 0.4 -0.7
v 1.8 0 -0.7
v 1.8 0.6 -0.7
v 1.9 0 -0.7
v 1.9 0.6 -0.7
v 1.9 0 -0.8
v 1.9 0.6 -0.8
v 2 0 -0.8
v 2 0.6 -0.8
v 0.8 0 -1
v 0.8 0.6 -1
v 0.9 0 -1
v 0.9 0.6 -1
v 0.7 0 -1.1
v 0.7 0.6 -1.1
v 0.8 0 -1.1
v 0.8 0.6 -1.1
v 0.6 0 -1.2
v 0.6 0.1 -1.2
v 0.6 0.5 -1.2
v 0.6 0.6 -1.2
v 0.7 0 -1.2
v 0.7 0.6 -1.2
v -1.4 0 -1.6
v -1.4 0.6 -1.6
v 0.6 0 -1.6
v 0.6 0.6 -1.6
v 0.6 0 -0.6
v 0.6 0.1 -0.6
v 0.6 0.5 -0.6
v 0.6 0.6 -0.6
v 0.7 0 -0.6
v 0.7 0.6 -0.6
v 0.7 0 -0.7
v 0.7 0.6 -0.7
v 0.8 0 -0.7
v 0.8 0.6 -0.7
v 0.8 0 -0.8
v 0.8 0.6 -0.8
v 0.9 0 -0.8
v 0.9 0.6 -0.8
v 1.9 0 -1
v 1.9 0.6 -1
v 2 0 -1
v 2 0.6 -1
v 0.3 0.2 -1.1
v 0.3 0.4 -1.1
v 0.5 0.2 -1.1
v 0.5 0.4 -1.1
v 1.8 0 -1.1
v 1.8 0.6 -1.1
v 1.9 0 -1.1
v 1.9 0.6 -1.1
v -2 0.1 -1.2
v -2 0.5 -1.2
v -1.8 0.1 -1.2
v -1.8 0.5 -1.2
v -1.4 0.1 -1.2
v -1.4 0.5 -1.2
v -1.3 0.1 -1.2
v -1.3 0.2 -1.2
v -1.3 0.4 -1.2
v -1.3 0.5 -1.2
v -1.2 0.1 -1.2
v -1.2 0.2 -1.2
v -1.2 0.4 -1.2
v -1.2 0.5 -1.2
v -1.1 0.1 -1.2
v -1.1 0.2 -1.2
v -1.1 0.4 -1.2
v -1.1 0.5 -1.2
v -1 0.1 -1.2
v -1 0.2 -1.2
v -1 0.4 -1.2
v -1 0.5 -1.2
v -0.9 0.1 -1.2
v -0.9 0.2 -1.2
v -0.9 0.4 -1.2
v -0.9 0.5 -1.2
v -0.8 0.1 -1.2
v -0.8 0.2 -1.2
v -0.8 0.4 -1.2
v -0.8 0.5 -1.2
v -0.7 0.1 -1.2
v -0.7 0.2 -1.2
v -0.7 0.4 -1.2
v -0.7 0.5 -1.2
v -0.6 0.1 -1.2
v -0.6 0.2 -1.2
v -0.6 0.4 -1.2
v -0.6 0.5 -1.2
v -0.5 0.1 -1.2
v -0.5 0.2 -1.2
v -0.5 0.4 -1.2
v -0.5 0.5 -1.2
v -0.4 0.1 -1.2
v -0.4 0.2 -1.2
v -0.4 0.4 -1.2
v -0.4 0.5 -1.2
v -0.3 0.1 -1.2
v -0.3 0.2 -1.2
v -0.3 0.4 -1.2
v -0.3 0.5 -1.2
v -0.2 0.1 -1.2
v -0.2 0.2 -1.2
v -0.2 0.4 -1.2
v -0.2 0.5 -1.2
v -0.0999999 0.1 -1.2
v -0.0999999 0.2 -1.2
v -0.0999999 0.4 -1.2
v -0.0999999 0.5 -1.2
v 2.38419e-07 0.1 -1.2
v 2.38419e-07 0.2 -1.2
v 2.38419e-07 0.4 -1.2
v 2.38419e-07 0.5 -1.2
v 0.3 0.1 -1.2
v 0.3 0.5 -1.2
v 0.5 0.1 -1.2
v 0.5 0.5 -1.2
v 0.6 0.1 -1.2
v 0.6 0.5 -1.2
v 1.4 0 -1.2
v 1.4 0.6 -1.2
v 1.8 0 -1.2
v 1.8 0.6 -1.2
v 1.3 0 -1.6
v 1.3 0.6 -1.6
v 1.4 0 -1.6
v 1.4 0.6 -1.6
v 1.2 0 -1.7
v 1.2 0.6 -1.7
v 1.3 0 -1.7
v 1.3 0.6 -1.7
v -1.8 0 -1.8
v -1.8 0.6 -1.8
v -1.7 0 -1.8
v -1.7 0.6 -1.8
v 1.1 0 -1.8
v 1.1 0.6 -1.8
v 1.2 0 -1.8
v 1.2 0.6 -1.8
v -1.7 0 -1.9
v -1.7 0.6 -1.9
v -1.6 0 -1.9
v -1.6 0.6 -1.9
v 1 0 -1.9
v 1 0.6 -1.9
v 1.1 0 -1.9
v 1.1 0.6 -1.9
v -1.6 0 -2
v -1.6 0.6 -2
v 1 0 -2
v 1 0.6 -2
v -1.8 0 0.4
v -1.4 0 0.4
v 0.6 0 0.4
v 1.4 0 0.4
v 0.6 0 -0.6
v 0.7 0 -0.6
v 1.4 0 -0.6
v 1.8 0 -0.6
v 0.7 0 -0.7
v 0.8 0 -0.7
v 1.8 0 -0.7
v 1.9 0 -0.7
v 0.8 0 -0.8
v 0.9 0 -0.8
v 1.9 0 -0.8
v 2 0 -0.8
v 0.8 0 -1
v 0.9 0 -1
v 1.9 0 -1
v 2 0 -1
v 0.7 0 -1.1
v 0.8 0 -1.1
v 1.8 0 -1.1
v 1.9 0 -1.1
v 0.6 0 -1.2
v 0.7 0 -1.2
v 1.4 0 -1.2
v 1.8 0 -1.2
v -1.4 0 -1.6
v 0.6 0 -1.6
v 1.3 0 -1.6
v 1.4 0 -1.6
v 1.2 0 -1.7
v 1.3 0 -1.7
v -1.8 0 -1.8
v -1.7 0 -1.8
v 1.1 0 -1.8
v 1.2 0 -1.8
v -1.7 0 -1.9
v -1.6 0 -1.9
v 1 0 -1.9
v 1.1 0 -1.9
v -1.6 0 -2
v 1 0 -2
v -2 0.1 -0.6
v -1.8 0.1 -0.6
v -1.4 0.1 -0.6
v -1.3 0.1 -0.6
v -1.2 0.1 -0.6
v -1.1 0.1 -0.6
v -1 0.1 -0.6
v -0.9 0.1 -0.6
v -0.8 0.1 -0.6
v -0.7 0.1 -0.6
v -0.6 0.1 -0.6
v -0.5 0.1 -0.6
v -0.4 0.1 -0.6
v -0.3 0.1 -0.6
v -0.2 0.1 -0.6
v -0.0999999 0.1 -0.6
v 2.38419e-07 0.1 -0.6
v 0.3 0.1 -0.6
v 0.5 0.1 -0.6
v 0.6 0.1 -0.6
v -2 0.1 -1.2
v -1.8 0.1 -1.2
v -1.4 0.1 -1.2
v -1.3 0.1 -1.2
v -1.2 0.1 -1.2
v -1.1 0.1 -1.2
v -1 0.1 -1.2
v -0.9 0.1 -1.2
v -0.8 0.1 -1.2
v -0.7 0.1 -1.2
v -0.6 0.1 -1.2
v -0.5 0.1 -1.2
v -0.4 0.1 -1.2
v -0.3 0.1 -1.2
v -0.2 0.1 -1.2
v -0.0999999 0.1 -1.2
v 2.38419e-07 0.1 -1.2
v 0.3 0.1 -1.2
v 0.5 0.1 -1.2
v 0.6 0.1 -1.2
v -1.3 0.2 -0.6
v -1.2 0.2 -0.6
v -1.1 0.2 -0.6
v -1 0.2 -0.6
v -0.9 0.2 -0.6
v -0.8 0.2 -0.6
v -0.7 0.2 -0.6
v -0.6 0.2 -0.6
v -0.5 0.2 -0.6
v -0.4 0.2 -0.6
v -0.3 0.2 -0.6
v -0.2 0.2 -0.6
v -0.0999999 0.2 -0.6
v 2.38419e-07 0.2 -0.6
v 0.3 0.2 -0.7
v 0.5 0.2 -0.7
v 0.3 0.2 -1.1
v 0.5 0.2 -1.1
v -1.3 0.2 -1.2
v -1.2 0.2 -1.2
v -1.1 0.2 -1.2
v -1 0.2 -1.2
v -0.9 0.2 -1.2
v -0.8 0.2 -1.2
v -0.7 0.2 -1.2
v -0.6 0.2 -1.2
v -0.5 0.2 -1.2
v -0.4 0.2 -1.2
v -0.3 0.2 -1.2
v -0.2 0.2 -1.2
v -0.0999999 0.2 -1.2
v 2.38419e-07 0.2 -1.2
v -1.3 0.4 -0.6
v -1.2 0.4 -0.6
v -1.1 0.4 -0.6
v -1 0.4 -0.6
v -0.9 0.4 -0.6
v -0.8 0.4 -0.6
v -0.7 0.4 -0.6
v -0.6 0.4 -0.6
v -0.5 0.4 -0.6
v -0.4 0.4 -0.6
v -0.3 0.4 -0.6
v -0.2 0.4 -0.6
v -0.0999999 0.4 -0.6
v 2.38419e-07 0.4 -0.6
v 0.3 0.4 -0.7
v 0.5 0.4 -0.7
v 0.3 0.4 -1.1
v 0.5 0.4 -1.1
v -1.3 0.4 -1.2
v -1.2 0.4 -1.2
v -1.1 0.4 -1.2
v -1 0.4 -1.2
v -0.9 0.4 -1.2
v -0.8 0.4 -1.2
v -0.7 0.4 -1.2
v -0.6 0.4 -1.2
v -0.5 0.4 -1.2
v -0.4 0.4 -1.2
v -0.3 0.4 -1.2
v -0.2 0.4 -1.2
v -0.0999999 0.4 -1.2
v 2.38419e-07 0.4 -1.2
v -2 0.5 -0.6
v -1.8 0.5 -0.6
v -1.4 0.5 -0.6
v -1.3 0.5 -0.6
v -1.2 0.5 -0.6
v -1.1 0.5 -0.6
v -1 0.5 -0.6
v -0.9 0.5 -0.6
v -0.8 0.5 -0.6
v -0.7 0.5 -0.6
v -0.6 0.5 -0.6
v -0.5 0.5 -0.6
v -0.4 0.5 -0.6
v -0.3 0.5 -0.6
v -0.2 0.5 -0.6
v -0.0999999 0.5 -0.6
v 2.38419e-07 0.5 -0.6
v 0.3 0.5 -0.6
v 0.5 0.5 -0.6
v 0.6 0.5 -0.6
v -2 0.5 -1.2
v -1.8 0.5 -1.2
v -1.4 0.5 -1.2
v -1.3 0.5 -1.2
v -1.2 0.5 -1.2
v -1.1 0.5 -1.2
v -1 0.5 -1.2
v -0.9 0.5 -1.2
v -0.8 0.5 -1.2
v -0.7 0.5 -1.2
v -0.6 0.5 -1.2
v -0.5 0.5 -1.2
v -0.4 0.5 -1.2
v -0.3 0.5 -1.2
v -0.2 0.5 -1.2
v -0.0999999 0.5 -1.2
v 2.38419e-07 0.5 -1.2
v 0.3 0.5 -1.2
v 0.5 0.5 -1.2
v 0.6 0.5 -1.2
v -1.8 0.6 0.4
v -1.4 0.6 0.4
v 0.6 0.6 0.4
v 1.4 0.6 0.4
v 0.6 0.6 -0.6
v 0.7 0.6 -0.6
v 1.4 0.6 -0.6
v 1.8 0.6 -0.6
v 0.7 0.6 -0.7
v 0.8 0.6 -0.7
v 1.8 0.6 -0.7
v 1.9 0.6 -0.7
v 0.8 0.6 -0.8
v 0.9 0.6 -0.8
v 1.9 0.6 -0.8
v 2 0.6 -0.8
v 0.8 0.6 -1
v 0.9 0.6 -1
v 1.9 0.6 -1
v 2 0.6 -1
v 0.7 0.6 -1.1
v 0.8 0.6 -1.1
v 1.8 0.6 -1.1
v 1.9 0.6 -1.1
v 0.6 0.6 -1.2
v 0.7 0.6 -1.2
v 1.4 0.6 -1.2
v 1.8 0.6 -1.2
v -1.4 0.6 -1.6
v 0.6 0.6 -1.6
v 1.3 0.6 -1.6
v 1.4 0.6 -1.6
v 1.2 0.6 -1.7
v 1.3 0.6 -1.7
v -1.8 0.6 -1.8
v -1.7 0.6 -1.8
v 1.1 0.6 -1.8
v 1.2 0.6 -1.8
v -1.7 0.6 -1.9
v -1.6 0.6 -1.9
v 1 0.6 -1.9
v 1.1 0.6 -1.9
v -1.6 0.6 -2
v 1 0.6 -2

# faces
f 3/1/1 2/1/1 1/1/1
f 4/1/1 2/1/1 3/1/1
f 7/2/1 6/2/1 5/2/1
f 8/2/1 6/2/1 7/2/1
f 9/2/1 7/2/1 5/2/1
f 10/2/1 6/2/1 8/2/1
f 11/2/1 9/2/1 5/2/1
f 11/2/1 10/2/1 9/2/1
f 12/2/1 6/2/1 10/2/1
f 12/2/1 10/2/1 11/2/1
f 15/2/1 14/2/1 13/2/1
f 16/2/1 14/2/1 15/2/1
f 19/2/1 18/2/1 17/2/1
f 20/2/1 18/2/1 19/2/1
f 23/1/1 22/1/1 21/1/1
f 24/1/1 22/1/1 23/1/1
f 27/1/1 26/1/1 25/1/1
f 28/1/1 26/1/1 27/1/1
f 31/1/1 30/1/1 29/1/1
f 32/1/1 30/1/1 31/1/1
f 35/1/1 34/1/1 33/1/1
f 36/1/1 34/1/1 35/1/1
f 39/1/1 38/1/1 37/1/1
f 40/1/1 38/1/1 39/1/1
f 43/1/1 42/1/1 41/1/1
f 44/1/1 42/1/1 43/1/1
f 47/1/1 46/1/1 45/1/1
f 48/1/1 46/1/1 47/1/1
f 51/1/1 50/1/1 49/1/1
f 52/1/1 50/1/1 51/1/1
f 55/1/1 54/1/1 53/1/1
f 56/1/1 54/1/1 55/1/1
f 59/1/1 58/1/1 57/1/1
f 60/1/1 58/1/1 59/1/1
f 63/1/1 62/1/1 61/1/1
f 64/1/1 62/1/1 63/1/1
f 67/1/1 66/1/1 65/1/1
f 68/1/1 66/1/1 67/1/1
f 71/1/1 70/1/1 69/1/1
f 72/1/1 70/1/1 71/1/1
f 75/1/1 74/1/1 73/1/1
f 76/1/1 74/1/1 75/1/1
f 79/1/1 78/1/1 77/1/1
f 80/1/1 78/1/1 79/1/1
f 81/1/1 79/1/1 77/1/1
f 82/1/1 78/1/1 80/1/1
f 83/1/1 81/1/1 77/1/1
f 83/1/1 82/1/1 81/1/1
f 84/1/1 78/1/1 82/1/1
f 84/1/1 82/1/1 83/1/1
f 89/2/1 86/2/1 85/2/1
f 90/2/1 88/2/1 87/2/1
f 91/2/1 89/2/1 85/2/1
f 92/2/1 88/2/1 90/2/1
f 93/2/1 91/2/1 85/2/1
f 94/2/1 91/2/1 93/2/1
f 95/2/1 88/2/1 92/2/1
f 96/2/1 88/2/1 95/2/1
f 101/2/1 98/2/1 97/2/1
f 102/2/1 98/2/1 101/2/1
f 103/2/1 100/2/1 99/2/1
f 104/2/1 100/2/1 103/2/1
f 109/2/1 106/2/1 105/2/1
f 110/2/1 106/2/1 109/2/1
f 111/2/1 108/2/1 107/2/1
f 112/2/1 108/2/1 111/2/1
f 115/2/1 114/2/1 113/2/1
f 116/2/1 114/2/1 115/2/1
f 117/2/2 118/2/2 119/2/2
f 119/2/2 118/2/2 120/2/2
f 117/2/2 119/2/2 121/2/2
f 120/2/2 118/2/2 122/2/2
f 117/2/2 121/2/2 123/2/2
f 121/2/2 122/2/2 123/2/2
f 122/2/2 118/2/2 124/2/2
f 123/2/2 122/2/2 124/2/2
f 125/1/2 126/1/2 127/1/2
f 127/1/2 126/1/2 128/1/2
f 129/1/2 130/1/2 131/1/2
f 131/1/2 130/1/2 132/1/2
f 133/1/2 134/1/2 135/1/2
f 135/1/2 134/1/2 136/1/2
f 137/1/2 138/1/2 139/1/2
f 139/1/2 138/1/2 140/1/2
f 141/1/2 142/1/2 143/1/2
f 143/1/2 142/1/2 144/1/2
f 145/1/2 146/1/2 147/1/2
f 147/1/2 146/1/2 148/1/2
f 149/1/2 150/1/2 151/1/2
f 151/1/2 150/1/2 152/1/2
f 153/1/2 154/1/2 155/1/2
f 155/1/2 154/1/2 156/1/2
f 157/1/2 158/1/2 159/1/2
f 159/1/2 158/1/2 160/1/2
f 161/1/2 162/1/2 163/1/2
f 163/1/2 162/1/2 164/1/2
f 165/1/2 166/1/2 167/1/2
f 167/1/2 166/1/2 168/1/2
f 169/1/2 170/1/2 171/1/2
f 171/1/2 170/1/2 172/1/2
f 173/1/2 174/1/2 175/1/2
f 175/1/2 174/1/2 176/1/2
f 177/1/2 178/1/2 179/1/2
f 179/1/2 178/1/2 180/1/2
f 181/1/2 182/1/2 183/1/2
f 183/1/2 182/1/2 184/1/2
f 181/1/2 183/1/2 185/1/2
f 184/1/2 182/1/2 186/1/2
f 181/1/2 185/1/2 187/1/2
f 185/1/2 186/1/2 187/1/2
f 186/1/2 182/1/2 188/1/2
f 187/1/2 186/1/2 188/1/2
f 189/1/2 190/1/2 191/1/2
f 191/1/2 190/1/2 192/1/2
f 193/2/2 194/2/2 195/2/2
f 195/2/2 194/2/2 196/2/2
f 197/2/2 198/2/2 199/2/2
f 199/2/2 198/2/2 200/2/2
f 201/2/2 202/2/2 203/2/2
f 203/2/2 202/2/2 204/2/2
f 205/2/2 206/2/2 207/2/2
f 207/2/2 206/2/2 208/2/2
f 209/2/2 210/2/2 213/2/2
f 213/2/2 210/2/2 214/2/2
f 211/2/2 212/2/2 215/2/2
f 215/2/2 212/2/2 216/2/2
f 217/2/2 218/2/2 221/2/2
f 221/2/2 218/2/2 222/2/2
f 219/2/2 220/2/2 223/2/2
f 223/2/2 220/2/2 224/2/2
f 225/2/2 226/2/2 229/2/2
f 229/2/2 226/2/2 230/2/2
f 227/2/2 228/2/2 231/2/2
f 231/2/2 228/2/2 232/2/2
f 233/2/2 234/2/2 235/2/2
f 235/2/2 234/2/2 236/2/2
f 239/2/3 238/2/3 237/2/3
f 240/2/3 238/2/3 239/2/3
f 243/2/3 242/2/3 241/2/3
f 244/2/3 242/2/3 243/2/3
f 247/1/3 246/1/3 245/1/3
f 248/1/3 246/1/3 247/1/3
f 251/1/3 250/1/3 249/1/3
f 252/1/3 250/1/3 251/1/3
f 253/1/3 250/1/3 252/1/3
f 254/1/3 250/1/3 253/1/3
f 256/1/3 253/1/3 252/1/3
f 257/1/3 253/1/3 256/1/3
f 259/1/3 256/1/3 255/1/3
f 259/1/3 258/1/3 257/1/3
f 259/1/3 257/1/3 256/1/3
f 260/1/3 258/1/3 259/1/3
f 261/1/3 258/1/3 260/1/3
f 262/1/3 258/1/3 261/1/3
f 264/1/3 261/1/3 260/1/3
f 265/1/3 261/1/3 264/1/3
f 267/1/3 264/1/3 263/1/3
f 267/1/3 266/1/3 265/1/3
f 267/1/3 265/1/3 264/1/3
f 268/1/3 266/1/3 267/1/3
f 269/1/3 266/1/3 268/1/3
f 270/1/3 266/1/3 269/1/3
f 272/1/3 269/1/3 268/1/3
f 273/1/3 269/1/3 272/1/3
f 275/1/3 272/1/3 271/1/3
f 275/1/3 274/1/3 273/1/3
f 275/1/3 273/1/3 272/1/3
f 276/1/3 274/1/3 275/1/3
f 277/1/3 274/1/3 276/1/3
f 278/1/3 274/1/3 277/1/3
f 280/1/3 277/1/3 276/1/3
f 281/1/3 277/1/3 280/1/3
f 283/1/3 280/1/3 279/1/3
f 283/1/3 282/1/3 281/1/3
f 283/1/3 281/1/3 280/1/3
f 284/1/3 282/1/3 283/1/3
f 285/1/3 282/1/3 284/1/3
f 286/1/3 282/1/3 285/1/3
f 288/1/3 285/1/3 284/1/3
f 289/1/3 285/1/3 288/1/3
f 291/1/3 288/1/3 287/1/3
f 291/1/3 290/1/3 289/1/3
f 291/1/3 289/1/3 288/1/3
f 292/1/3 290/1/3 291/1/3
f 293/1/3 290/1/3 292/1/3
f 294/1/3 290/1/3 293/1/3
f 296/1/3 293/1/3 292/1/3
f 297/1/3 293/1/3 296/1/3
f 299/1/3 296/1/3 295/1/3
f 299/1/3 298/1/3 297/1/3
f 299/1/3 297/1/3 296/1/3
f 300/1/3 298/1/3 299/1/3
f 301/1/3 298/1/3 300/1/3
f 302/1/3 298/1/3 301/1/3
f 304/1/3 301/1/3 300/1/3
f 305/1/3 301/1/3 304/1/3
f 307/1/3 304/1/3 303/1/3
f 307/1/3 306/1/3 305/1/3
f 307/1/3 305/1/3 304/1/3
f 308/1/3 306/1/3 307/1/3
f 311/1/3 310/1/3 309/1/3
f 312/1/3 310/1/3 311/1/3
f 315/2/3 314/2/3 313/2/3
f 316/2/3 314/2/3 315/2/3
f 319/1/3 318/1/3 317/1/3
f 320/1/3 318/1/3 319/1/3
f 323/2/3 322/2/3 321/2/3
f 324/2/3 322/2/3 323/2/3
f 327/2/3 326/2/3 325/2/3
f 328/2/3 326/2/3 327/2/3
f 331/2/3 330/2/3 329/2/3
f 332/2/3 330/2/3 331/2/3
f 335/2/3 334/2/3 333/2/3
f 336/2/3 334/2/3 335/2/3
f 341/2/3 338/2/3 337/2/3
f 341/2/3 340/2/3 339/2/3
f 341/2/3 339/2/3 338/2/3
f 342/2/3 340/2/3 341/2/3
f 345/2/3 344/2/3 343/2/3
f 346/2/3 344/2/3 345/2/3
f 347/2/4 348/2/4 351/2/4
f 349/2/4 350/2/4 351/2/4
f 348/2/4 349/2/4 351/2/4
f 351/2/4 350/2/4 352/2/4
f 353/2/4 354/2/4 355/2/4
f 355/2/4 354/2/4 356/2/4
f 357/2/4 358/2/4 359/2/4
f 359/2/4 358/2/4 360/2/4
f 361/2/4 362/2/4 363/2/4
f 363/2/4 362/2/4 364/2/4
f 365/1/4 366/1/4 367/1/4
f 367/1/4 366/1/4 368/1/4
f 369/2/4 370/2/4 371/2/4
f 371/2/4 370/2/4 372/2/4
f 373/1/4 374/1/4 375/1/4
f 375/1/4 374/1/4 376/1/4
f 377/1/4 378/1/4 379/1/4
f 379/1/4 378/1/4 380/1/4
f 380/1/4 378/1/4 381/1/4
f 381/1/4 378/1/4 382/1/4
f 380/1/4 381/1/4 384/1/4
f 384/1/4 381/1/4 385/1/4
f 383/1/4 384/1/4 387/1/4
f 385/1/4 386/1/4 387/1/4
f 384/1/4 385/1/4 387/1/4
f 387/1/4 386/1/4 388/1/4
f 388/1/4 386/1/4 389/1/4
f 389/1/4 386/1/4 390/1/4
f 388/1/4 389/1/4 392/1/4
f 392/1/4 389/1/4 393/1/4
f 391/1/4 392/1/4 395/1/4
f 393/1/4 394/1/4 395/1/4
f 392/1/4 393/1/4 395/1/4
f 395/1/4 394/1/4 396/1/4
f 396/1/4 394/1/4 397/1/4
f 397/1/4 394/1/4 398/1/4
f 396/1/4 397/1/4 400/1/4
f 400/1/4 397/1/4 401/1/4
f 399/1/4 400/1/4 403/1/4
f 401/1/4 402/1/4 403/1/4
f 400/1/4 401/1/4 403/1/4
f 403/1/4 402/1/4 404/1/4
f 404/1/4 402/1/4 405/1/4
f 405/1/4 402/1/4 406/1/4
f 404/1/4 405/1/4 408/1/4
f 408/1/4 405/1/4 409/1/4
f 407/1/4 408/1/4 411/1/4
f 409/1/4 410/1/4 411/1/4
f 408/1/4 409/1/4 411/1/4
f 411/1/4 410/1/4 412/1/4
f 412/1/4 410/1/4 413/1/4
f 413/1/4 410/1/4 414/1/4
f 412/1/4 413/1/4 416/1/4
f 416/1/4 413/1/4 417/1/4
f 415/1/4 416/1/4 419/1/4
f 417/1/4 418/1/4 419/1/4
f 416/1/4 417/1/4 419/1/4
f 419/1/4 418/1/4 420/1/4
f 420/1/4 418/1/4 421/1/4
f 421/1/4 418/1/4 422/1/4
f 420/1/4 421/1/4 424/1/4
f 424/1/4 421/1/4 425/1/4
f 423/1/4 424/1/4 427/1/4
f 425/1/4 426/1/4 427/1/4
f 424/1/4 425/1/4 427/1/4
f 427/1/4 426/1/4 428/1/4
f 428/1/4 426/1/4 429/1/4
f 429/1/4 426/1/4 430/1/4
f 428/1/4 429/1/4 432/1/4
f 432/1/4 429/1/4 433/1/4
f 431/1/4 432/1/4 435/1/4
f 433/1/4 434/1/4 435/1/4
f 432/1/4 433/1/4 435/1/4
f 435/1/4 434/1/4 436/1/4
f 437/1/4 438/1/4 439/1/4
f 439/1/4 438/1/4 440/1/4
f 441/2/4 442/2/4 443/2/4
f 443/2/4 442/2/4 444/2/4
f 445/2/4 446/2/4 447/2/4
f 447/2/4 446/2/4 448/2/4
f 449/2/4 450/2/4 451/2/4
f 451/2/4 450/2/4 452/2/4
f 453/2/4 454/2/4 455/2/4
f 455/2/4 454/2/4 456/2/4
f 457/2/4 458/2/4 459/2/4
f 459/2/4 458/2/4 460/2/4
f 461/2/4 462/2/4 463/2/4
f 463/2/4 462/2/4 464/2/4
f 465/2/4 466/2/4 467/2/4
f 467/2/4 466/2/4 468/2/4
f 469/2/4 470/2/4 471/2/4
f 471/2/4 470/2/4 472/2/4
f 477/2/5 476/2/5 475/2/5
f 478/2/5 476/2/5 477/2/5
f 479/2/5 476/2/5 478/2/5
f 481/2/5 480/2/5 479/2/5
f 481/2/5 479/2/5 478/2/5
f 482/2/5 480/2/5 481/2/5
f 483/2/5 480/2/5 482/2/5
f 485/2/5 484/2/5 483/2/5
f 485/2/5 483/2/5 482/2/5
f 486/2/5 484/2/5 485/2/5
f 487/2/5 484/2/5 486/2/5
f 490/2/5 488/2/5 487/2/5
f 490/2/5 487/2/5 486/2/5
f 491/2/5 488/2/5 490/2/5
f 492/2/5 488/2/5 491/2/5
f 494/2/5 490/2/5 489/2/5
f 494/2/5 491/2/5 490/2/5
f 495/2/5 491/2/5 494/2/5
f 496/2/5 491/2/5 495/2/5
f 498/2/5 494/2/5 493/2/5
f 498/2/5 495/2/5 494/2/5
f 499/2/5 495/2/5 498/2/5
f 500/2/5 495/2/5 499/2/5
f 501/2/5 474/2/5 473/2/5
f 502/2/5 498/2/5 497/2/5
f 502/2/5 499/2/5 498/2/5
f 503/2/5 499/2/5 502/2/5
f 504/2/5 499/2/5 503/2/5
f 505/2/5 502/2/5 501/2/5
f 505/2/5 503/2/5 502/2/5
f 506/2/5 503/2/5 505/2/5
f 507/2/5 501/2/5 473/2/5
f 507/2/5 505/2/5 501/2/5
f 508/2/5 505/2/5 507/2/5
f 509/2/5 505/2/5 508/2/5
f 510/2/5 505/2/5 509/2/5
f 511/2/5 509/2/5 508/2/5
f 512/2/5 509/2/5 511/2/5
f 513/2/5 509/2/5 512/2/5
f 514/2/5 509/2/5 513/2/5
f 515/2/5 513/2/5 512/2/5
f 516/2/5 513/2/5 515/2/5
f 537/1/5 518/1/5 517/1/5
f 538/1/5 518/1/5 537/1/5
f 539/1/5 520/1/5 519/1/5
f 540/1/5 520/1/5 539/1/5
f 541/1/5 522/1/5 521/1/5
f 542/1/5 522/1/5 541/1/5
f 543/1/5 524/1/5 523/1/5
f 544/1/5 524/1/5 543/1/5
f 545/1/5 526/1/5 525/1/5
f 546/1/5 526/1/5 545/1/5
f 547/1/5 528/1/5 527/1/5
f 548/1/5 528/1/5 547/1/5
f 549/1/5 530/1/5 529/1/5
f 550/1/5 530/1/5 549/1/5
f 551/1/5 532/1/5 531/1/5
f 552/1/5 532/1/5 551/1/5
f 553/1/5 534/1/5 533/1/5
f 554/1/5 534/1/5 553/1/5
f 555/1/5 536/1/5 535/1/5
f 556/1/5 536/1/5 555/1/5
f 573/1/5 572/1/5 571/1/5
f 574/1/5 572/1/5 573/1/5
f 575/1/5 558/1/5 557/1/5
f 576/1/5 558/1/5 575/1/5
f 577/1/5 560/1/5 559/1/5
f 578/1/5 560/1/5 577/1/5
f 579/1/5 562/1/5 561/1/5
f 580/1/5 562/1/5 579/1/5
f 581/1/5 564/1/5 563/1/5
f 582/1/5 564/1/5 581/1/5
f 583/1/5 566/1/5 565/1/5
f 584/1/5 566/1/5 583/1/5
f 585/1/5 568/1/5 567/1/5
f 586/1/5 568/1/5 585/1/5
f 587/1/5 570/1/5 569/1/5
f 588/1/5 570/1/5 587/1/5
f 603/1/6 604/1/6 605/1/6
f 605/1/6 604/1/6 606/1/6
f 589/1/6 590/1/6 607/1/6
f 607/1/6 590/1/6 608/1/6
f 591/1/6 592/1/6 609/1/6
f 609/1/6 592/1/6 610/1/6
f 593/1/6 594/1/6 611/1/6
f 611/1/6 594/1/6 612/1/6
f 595/1/6 596/1/6 613/1/6
f 613/1/6 596/1/6 614/1/6
f 597/1/6 598/1/6 615/1/6
f 615/1/6 598/1/6 616/1/6
f 599/1/6 600/1/6 617/1/6
f 617/1/6 600/1/6 618/1/6
f 601/1/6 602/1/6 619/1/6
f 619/1/6 602/1/6 620/1/6
f 621/1/6 622/1/6 641/1/6
f 641/1/6 622/1/6 642/1/6
f 623/1/6 624/1/6 643/1/6
f 643/1/6 624/1/6 644/1/6
f 625/1/6 626/1/6 645/1/6
f 645/1/6 626/1/6 646/1/6
f 627/1/6 628/1/6 647/1/6
f 647/1/6 628/1/6 648/1/6
f 629/1/6 630/1/6 649/1/6
f 649/1/6 630/1/6 650/1/6
f 631/1/6 632/1/6 651/1/6
f 651/1/6 632/1/6 652/1/6
f 633/1/6 634/1/6 653/1/6
f 653/1/6 634/1/6 654/1/6
f 635/1/6 636/1/6 655/1/6
f 655/1/6 636/1/6 656/1/6
f 637/1/6 638/1/6 657/1/6
f 657/1/6 638/1/6 658/1/6
f 639/1/6 640/1/6 659/1/6
f 659/1/6 640/1/6 660/1/6
f 663/2/6 664/2/6 665/2/6
f 665/2/6 664/2/6 666/2/6
f 666/2/6 664/2/6 667/2/6
f 667/2/6 668/2/6 669/2/6
f 666/2/6 667/2/6 669/2/6
f 669/2/6 668/2/6 670/2/6
f 670/2/6 668/2/6 671/2/6
f 671/2/6 672/2/6 673/2/6
f 670/2/6 671/2/6 673/2/6
f 673/2/6 672/2/6 674/2/6
f 674/2/6 672/2/6 675/2/6
f 675/2/6 676/2/6 678/2/6
f 674/2/6 675/2/6 678/2/6
f 678/2/6 676/2/6 679/2/6
f 679/2/6 676/2/6 680/2/6
f 677/2/6 678/2/6 682/2/6
f 678/2/6 679/2/6 682/2/6
f 682/2/6 679/2/6 683/2/6
f 683/2/6 679/2/6 684/2/6
f 681/2/6 682/2/6 686/2/6
f 682/2/6 683/2/6 686/2/6
f 686/2/6 683/2/6 687/2/6
f 687/2/6 683/2/6 688/2/6
f 661/2/6 662/2/6 689/2/6
f 685/2/6 686/2/6 690/2/6
f 686/2/6 687/2/6 690/2/6
f 690/2/6 687/2/6 691/2/6
f 691/2/6 687/2/6 692/2/6
f 689/2/6 690/2/6 693/2/6
f 690/2/6 691/2/6 693/2/6
f 693/2/6 691/2/6 694/2/6
f 661/2/6 689/2/6 695/2/6
f 689/2/6 693/2/6 695/2/6
f 695/2/6 693/2/6 696/2/6
f 696/2/6 693/2/6 697/2/6
f 697/2/6 693/2/6 698/2/6
f 696/2/6 697/2/6 699/2/6
f 699/2/6 697/2/6 700/2/6
f 700/2/6 697/2/6 701/2/6
f 701/2/6 697/2/6 702/2/6
f 700/2/6 701/2/6 703/2/6
f 703/2/6 701/2/6 704/2/6
