# MagicaVoxel @ Ephtracy

# group
o 

# material
mtllib стрипер для буфера.mtl
usemtl palette

# normals
vn -1 0 0
vn 1 0 0
vn 0 0 1
vn 0 0 -1
vn 0 -1 0
vn 0 1 0

# texcoords
vt 0.970703 0.5
vt 0.974609 0.5
vt 0.978516 0.5

# verts
v -2 0 2
v -2 0 -0.3
v -2 0.3 2
v -2 0.3 -0.3
v -1.9 0.1 -0.3
v -1.9 0.1 -0.6
v -1.9 0.2 -0.3
v -1.9 0.2 -0.6
v -1.8 0.1 -0.6
v -1.8 0.1 -0.7
v -1.8 0.2 -0.6
v -1.8 0.2 -0.7
v -1.7 0.1 -0.7
v -1.7 0.1 -0.8
v -1.7 0.2 -0.7
v -1.7 0.2 -0.8
v -1.6 0.1 -0.8
v -1.6 0.1 -0.9
v -1.6 0.2 -0.8
v -1.6 0.2 -0.9
v -1.6 0.2 -1.1
v -1.6 0.2 -1.4
v -1.6 0.3 -1.1
v -1.6 0.3 -1.4
v -1.5 0.1 -0.9
v -1.5 0.1 -1
v -1.5 0.2 -0.9
v -1.5 0.2 -1
v -1.4 0.1 -1
v -1.4 0.1 -1.1
v -1.4 0.2 -1
v -1.4 0.2 -1.1
v -1.4 0.3 -1
v -1.4 0.3 -1.1
v -1.3 0.1 -1.1
v -1.3 0.1 -1.2
v -1.3 0.2 -0.9
v -1.3 0.2 -1
v -1.3 0.2 -1.1
v -1.3 0.2 -1.2
v -1.3 0.3 -0.9
v -1.3 0.3 -1
v -1.1 0.1 -0.8
v -1.1 0.1 -0.9
v -1.1 0.2 -0.8
v -1.1 0.2 -0.9
v -1.1 0.2 -1.2
v -1.1 0.2 -1.3
v -1.1 0.3 -1.2
v -1.1 0.3 -1.3
v -1 0.1 -0.7
v -1 0.1 -0.8
v -1 0.2 -0.7
v -1 0.2 -0.8
v -1 0.2 -1.3
v -1 0.2 -1.4
v -1 0.3 -1.3
v -1 0.3 -1.4
v -0.9 0.1 -0.6
v -0.9 0.1 -0.7
v -0.9 0.2 -0.6
v -0.9 0.2 -0.7
v -0.8 0 2
v -0.8 0 -0.3
v -0.8 0.1 -0.5
v -0.8 0.1 -0.6
v -0.8 0.2 -0.5
v -0.8 0.2 -0.6
v -0.8 0.3 2
v -0.8 0.3 -0.3
v -0.7 0.1 -0.3
v -0.7 0.1 -0.5
v -0.7 0.2 -0.3
v -0.7 0.2 -0.5
v -1.7 0.1 -0.3
v -1.7 0.1 -0.5
v -1.7 0.2 -0.3
v -1.7 0.2 -0.5
v -1.6 0 2
v -1.6 0 -0.3
v -1.6 0.1 -0.5
v -1.6 0.1 -0.6
v -1.6 0.2 -0.5
v -1.6 0.2 -0.6
v -1.6 0.3 2
v -1.6 0.3 -0.3
v -1.5 0.1 -0.6
v -1.5 0.1 -0.7
v -1.5 0.2 -0.6
v -1.5 0.2 -0.7
v -1.4 0.1 -0.7
v -1.4 0.1 -0.8
v -1.4 0.2 -0.7
v -1.4 0.2 -0.8
v -1.4 0.2 -1.3
v -1.4 0.2 -1.4
v -1.4 0.3 -1.3
v -1.4 0.3 -1.4
v -1.3 0.1 -0.8
v -1.3 0.1 -0.9
v -1.3 0.2 -0.8
v -1.3 0.2 -0.9
v -1.3 0.2 -1.2
v -1.3 0.2 -1.3
v -1.3 0.3 -1.2
v -1.3 0.3 -1.3
v -1.1 0.1 -1.1
v -1.1 0.1 -1.2
v -1.1 0.2 -0.9
v -1.1 0.2 -1
v -1.1 0.2 -1.1
v -1.1 0.2 -1.2
v -1.1 0.3 -0.9
v -1.1 0.3 -1
v -1 0.1 -1
v -1 0.1 -1.1
v -1 0.2 -1
v -1 0.2 -1.1
v -1 0.3 -1
v -1 0.3 -1.1
v -0.9 0.1 -0.9
v -0.9 0.1 -1
v -0.9 0.2 -0.9
v -0.9 0.2 -1
v -0.8 0.1 -0.8
v -0.8 0.1 -0.9
v -0.8 0.2 -0.8
v -0.8 0.2 -0.9
v -0.8 0.2 -1.1
v -0.8 0.2 -1.4
v -0.8 0.3 -1.1
v -0.8 0.3 -1.4
v -0.7 0.1 -0.7
v -0.7 0.1 -0.8
v -0.7 0.2 -0.7
v -0.7 0.2 -0.8
v -0.6 0.1 -0.6
v -0.6 0.1 -0.7
v -0.6 0.2 -0.6
v -0.6 0.2 -0.7
v -0.5 0.1 -0.3
v -0.5 0.1 -0.6
v -0.5 0.2 -0.3
v -0.5 0.2 -0.6
v -0.4 0 2
v -0.4 0 -0.3
v -0.4 0.3 2
v -0.4 0.3 -0.3
v -2 0 2
v -2 0.3 2
v -1.6 0 2
v -1.6 0.3 2
v -0.8 0 2
v -0.8 0.3 2
v -0.4 0 2
v -0.4 0.3 2
v -1.7 0.1 -0.5
v -1.7 0.2 -0.5
v -1.6 0.1 -0.5
v -1.6 0.2 -0.5
v -0.8 0.1 -0.5
v -0.8 0.2 -0.5
v -0.7 0.1 -0.5
v -0.7 0.2 -0.5
v -1.6 0.1 -0.6
v -1.6 0.2 -0.6
v -1.5 0.1 -0.6
v -1.5 0.2 -0.6
v -0.9 0.1 -0.6
v -0.9 0.2 -0.6
v -0.8 0.1 -0.6
v -0.8 0.2 -0.6
v -1.5 0.1 -0.7
v -1.5 0.2 -0.7
v -1.4 0.1 -0.7
v -1.4 0.2 -0.7
v -1 0.1 -0.7
v -1 0.2 -0.7
v -0.9 0.1 -0.7
v -0.9 0.2 -0.7
v -1.4 0.1 -0.8
v -1.4 0.2 -0.8
v -1.3 0.1 -0.8
v -1.3 0.2 -0.8
v -1.1 0.1 -0.8
v -1.1 0.2 -0.8
v -1 0.1 -0.8
v -1 0.2 -0.8
v -1.3 0.1 -0.9
v -1.3 0.2 -0.9
v -1.3 0.3 -0.9
v -1.2 0.1 -0.9
v -1.2 0.2 -0.9
v -1.2 0.3 -0.9
v -1.1 0.1 -0.9
v -1.1 0.2 -0.9
v -1.1 0.3 -0.9
v -1.4 0.2 -1
v -1.4 0.3 -1
v -1.3 0.2 -1
v -1.3 0.3 -1
v -1.1 0.2 -1
v -1.1 0.3 -1
v -1 0.2 -1
v -1 0.3 -1
v -1.6 0.2 -1.1
v -1.6 0.3 -1.1
v -1.4 0.2 -1.1
v -1.4 0.3 -1.1
v -1 0.2 -1.1
v -1 0.3 -1.1
v -0.8 0.2 -1.1
v -0.8 0.3 -1.1
v -2 0 -0.3
v -2 0.3 -0.3
v -1.9 0.1 -0.3
v -1.9 0.2 -0.3
v -1.7 0.1 -0.3
v -1.7 0.2 -0.3
v -1.6 0 -0.3
v -1.6 0.3 -0.3
v -0.8 0 -0.3
v -0.8 0.3 -0.3
v -0.7 0.1 -0.3
v -0.7 0.2 -0.3
v -0.5 0.1 -0.3
v -0.5 0.2 -0.3
v -0.4 0 -0.3
v -0.4 0.3 -0.3
v -1.9 0.1 -0.6
v -1.9 0.2 -0.6
v -1.8 0.1 -0.6
v -1.8 0.2 -0.6
v -0.6 0.1 -0.6
v -0.6 0.2 -0.6
v -0.5 0.1 -0.6
v -0.5 0.2 -0.6
v -1.8 0.1 -0.7
v -1.8 0.2 -0.7
v -1.7 0.1 -0.7
v -1.7 0.2 -0.7
v -0.7 0.1 -0.7
v -0.7 0.2 -0.7
v -0.6 0.1 -0.7
v -0.6 0.2 -0.7
v -1.7 0.1 -0.8
v -1.7 0.2 -0.8
v -1.6 0.1 -0.8
v -1.6 0.2 -0.8
v -0.8 0.1 -0.8
v -0.8 0.2 -0.8
v -0.7 0.1 -0.8
v -0.7 0.2 -0.8
v -1.6 0.1 -0.9
v -1.6 0.2 -0.9
v -1.5 0.1 -0.9
v -1.5 0.2 -0.9
v -0.9 0.1 -0.9
v -0.9 0.2 -0.9
v -0.8 0.1 -0.9
v -0.8 0.2 -0.9
v -1.5 0.1 -1
v -1.5 0.2 -1
v -1.4 0.1 -1
v -1.4 0.2 -1
v -1 0.1 -1
v -1 0.2 -1
v -0.9 0.1 -1
v -0.9 0.2 -1
v -1.4 0.1 -1.1
v -1.4 0.2 -1.1
v -1.3 0.1 -1.1
v -1.3 0.2 -1.1
v -1.1 0.1 -1.1
v -1.1 0.2 -1.1
v -1 0.1 -1.1
v -1 0.2 -1.1
v -1.3 0.1 -1.2
v -1.3 0.2 -1.2
v -1.3 0.3 -1.2
v -1.2 0.1 -1.2
v -1.2 0.2 -1.2
v -1.2 0.3 -1.2
v -1.1 0.1 -1.2
v -1.1 0.2 -1.2
v -1.1 0.3 -1.2
v -1.4 0.2 -1.3
v -1.4 0.3 -1.3
v -1.3 0.2 -1.3
v -1.3 0.3 -1.3
v -1.1 0.2 -1.3
v -1.1 0.3 -1.3
v -1 0.2 -1.3
v -1 0.3 -1.3
v -1.6 0.2 -1.4
v -1.6 0.3 -1.4
v -1.4 0.2 -1.4
v -1.4 0.3 -1.4
v -1 0.2 -1.4
v -1 0.3 -1.4
v -0.8 0.2 -1.4
v -0.8 0.3 -1.4
v -2 0 2
v -1.6 0 2
v -0.8 0 2
v -0.4 0 2
v -2 0 -0.3
v -1.6 0 -0.3
v -0.8 0 -0.3
v -0.4 0 -0.3
v -1.9 0.1 -0.3
v -1.7 0.1 -0.3
v -0.7 0.1 -0.3
v -0.5 0.1 -0.3
v -1.7 0.1 -0.5
v -1.6 0.1 -0.5
v -0.8 0.1 -0.5
v -0.7 0.1 -0.5
v -1.9 0.1 -0.6
v -1.8 0.1 -0.6
v -1.6 0.1 -0.6
v -1.5 0.1 -0.6
v -0.9 0.1 -0.6
v -0.8 0.1 -0.6
v -0.6 0.1 -0.6
v -0.5 0.1 -0.6
v -1.8 0.1 -0.7
v -1.7 0.1 -0.7
v -1.5 0.1 -0.7
v -1.4 0.1 -0.7
v -1 0.1 -0.7
v -0.9 0.1 -0.7
v -0.7 0.1 -0.7
v -0.6 0.1 -0.7
v -1.7 0.1 -0.8
v -1.6 0.1 -0.8
v -1.4 0.1 -0.8
v -1.3 0.1 -0.8
v -1.1 0.1 -0.8
v -1 0.1 -0.8
v -0.8 0.1 -0.8
v -0.7 0.1 -0.8
v -1.6 0.1 -0.9
v -1.5 0.1 -0.9
v -1.3 0.1 -0.9
v -1.2 0.1 -0.9
v -1.1 0.1 -0.9
v -0.9 0.1 -0.9
v -0.8 0.1 -0.9
v -1.5 0.1 -1
v -1.4 0.1 -1
v -1 0.1 -1
v -0.9 0.1 -1
v -1.4 0.1 -1.1
v -1.3 0.1 -1.1
v -1.1 0.1 -1.1
v -1 0.1 -1.1
v -1.3 0.1 -1.2
v -1.2 0.1 -1.2
v -1.1 0.1 -1.2
v -1.6 0.2 -1.1
v -1.4 0.2 -1.1
v -1.3 0.2 -1.1
v -1.1 0.2 -1.1
v -1 0.2 -1.1
v -0.8 0.2 -1.1
v -1.3 0.2 -1.2
v -1.1 0.2 -1.2
v -1.4 0.2 -1.3
v -1.3 0.2 -1.3
v -1.1 0.2 -1.3
v -1 0.2 -1.3
v -1.6 0.2 -1.4
v -1.4 0.2 -1.4
v -1 0.2 -1.4
v -0.8 0.2 -1.4
v -1.9 0.2 -0.3
v -1.7 0.2 -0.3
v -0.7 0.2 -0.3
v -0.5 0.2 -0.3
v -1.7 0.2 -0.5
v -1.6 0.2 -0.5
v -0.8 0.2 -0.5
v -0.7 0.2 -0.5
v -1.9 0.2 -0.6
v -1.8 0.2 -0.6
v -1.6 0.2 -0.6
v -1.5 0.2 -0.6
v -0.9 0.2 -0.6
v -0.8 0.2 -0.6
v -0.6 0.2 -0.6
v -0.5 0.2 -0.6
v -1.8 0.2 -0.7
v -1.7 0.2 -0.7
v -1.5 0.2 -0.7
v -1.4 0.2 -0.7
v -1 0.2 -0.7
v -0.9 0.2 -0.7
v -0.7 0.2 -0.7
v -0.6 0.2 -0.7
v -1.7 0.2 -0.8
v -1.6 0.2 -0.8
v -1.4 0.2 -0.8
v -1.3 0.2 -0.8
v -1.1 0.2 -0.8
v -1 0.2 -0.8
v -0.8 0.2 -0.8
v -0.7 0.2 -0.8
v -1.6 0.2 -0.9
v -1.5 0.2 -0.9
v -1.3 0.2 -0.9
v -1.1 0.2 -0.9
v -0.9 0.2 -0.9
v -0.8 0.2 -0.9
v -1.5 0.2 -1
v -1.4 0.2 -1
v -1.3 0.2 -1
v -1.1 0.2 -1
v -1 0.2 -1
v -0.9 0.2 -1
v -2 0.3 2
v -1.6 0.3 2
v -0.8 0.3 2
v -0.4 0.3 2
v -2 0.3 -0.3
v -1.6 0.3 -0.3
v -0.8 0.3 -0.3
v -0.4 0.3 -0.3
v -1.3 0.3 -0.9
v -1.2 0.3 -0.9
v -1.1 0.3 -0.9
v -1.4 0.3 -1
v -1.3 0.3 -1
v -1.1 0.3 -1
v -1 0.3 -1
v -1.6 0.3 -1.1
v -1.4 0.3 -1.1
v -1 0.3 -1.1
v -0.8 0.3 -1.1
v -1.3 0.3 -1.2
v -1.2 0.3 -1.2
v -1.1 0.3 -1.2
v -1.4 0.3 -1.3
v -1.3 0.3 -1.3
v -1.1 0.3 -1.3
v -1 0.3 -1.3
v -1.6 0.3 -1.4
v -1.4 0.3 -1.4
v -1 0.3 -1.4
v -0.8 0.3 -1.4

# faces
f 3/1/1 2/1/1 1/1/1
f 4/1/1 2/1/1 3/1/1
f 7/2/1 6/2/1 5/2/1
f 8/2/1 6/2/1 7/2/1
f 11/2/1 10/2/1 9/2/1
f 12/2/1 10/2/1 11/2/1
f 15/2/1 14/2/1 13/2/1
f 16/2/1 14/2/1 15/2/1
f 19/2/1 18/2/1 17/2/1
f 20/2/1 18/2/1 19/2/1
f 23/3/1 22/3/1 21/3/1
f 24/3/1 22/3/1 23/3/1
f 27/2/1 26/2/1 25/2/1
f 28/2/1 26/2/1 27/2/1
f 31/2/1 30/2/1 29/2/1
f 32/2/1 30/2/1 31/2/1
f 33/3/1 32/3/1 31/3/1
f 34/3/1 32/3/1 33/3/1
f 39/2/1 36/2/1 35/2/1
f 40/2/1 36/2/1 39/2/1
f 41/3/1 38/3/1 37/3/1
f 42/3/1 38/3/1 41/3/1
f 45/3/1 44/3/1 43/3/1
f 46/3/1 44/3/1 45/3/1
f 49/2/1 48/2/1 47/2/1
f 50/2/1 48/2/1 49/2/1
f 53/3/1 52/3/1 51/3/1
f 54/3/1 52/3/1 53/3/1
f 57/2/1 56/2/1 55/2/1
f 58/2/1 56/2/1 57/2/1
f 61/3/1 60/3/1 59/3/1
f 62/3/1 60/3/1 61/3/1
f 67/3/1 66/3/1 65/3/1
f 68/3/1 66/3/1 67/3/1
f 69/1/1 64/1/1 63/1/1
f 70/1/1 64/1/1 69/1/1
f 73/3/1 72/3/1 71/3/1
f 74/3/1 72/3/1 73/3/1
f 75/2/2 76/2/2 77/2/2
f 77/2/2 76/2/2 78/2/2
f 81/2/2 82/2/2 83/2/2
f 83/2/2 82/2/2 84/2/2
f 79/1/2 80/1/2 85/1/2
f 85/1/2 80/1/2 86/1/2
f 87/2/2 88/2/2 89/2/2
f 89/2/2 88/2/2 90/2/2
f 91/2/2 92/2/2 93/2/2
f 93/2/2 92/2/2 94/2/2
f 95/3/2 96/3/2 97/3/2
f 97/3/2 96/3/2 98/3/2
f 99/2/2 100/2/2 101/2/2
f 101/2/2 100/2/2 102/2/2
f 103/3/2 104/3/2 105/3/2
f 105/3/2 104/3/2 106/3/2
f 107/3/2 108/3/2 111/3/2
f 111/3/2 108/3/2 112/3/2
f 109/2/2 110/2/2 113/2/2
f 113/2/2 110/2/2 114/2/2
f 115/3/2 116/3/2 117/3/2
f 117/3/2 116/3/2 118/3/2
f 117/2/2 118/2/2 119/2/2
f 119/2/2 118/2/2 120/2/2
f 121/3/2 122/3/2 123/3/2
f 123/3/2 122/3/2 124/3/2
f 125/3/2 126/3/2 127/3/2
f 127/3/2 126/3/2 128/3/2
f 129/2/2 130/2/2 131/2/2
f 131/2/2 130/2/2 132/2/2
f 133/3/2 134/3/2 135/3/2
f 135/3/2 134/3/2 136/3/2
f 137/3/2 138/3/2 139/3/2
f 139/3/2 138/3/2 140/3/2
f 141/3/2 142/3/2 143/3/2
f 143/3/2 142/3/2 144/3/2
f 145/1/2 146/1/2 147/1/2
f 147/1/2 146/1/2 148/1/2
f 151/1/3 150/1/3 149/1/3
f 152/1/3 150/1/3 151/1/3
f 155/1/3 154/1/3 153/1/3
f 156/1/3 154/1/3 155/1/3
f 159/2/3 158/2/3 157/2/3
f 160/2/3 158/2/3 159/2/3
f 163/3/3 162/3/3 161/3/3
f 164/3/3 162/3/3 163/3/3
f 167/2/3 166/2/3 165/2/3
f 168/2/3 166/2/3 167/2/3
f 171/3/3 170/3/3 169/3/3
f 172/3/3 170/3/3 171/3/3
f 175/2/3 174/2/3 173/2/3
f 176/2/3 174/2/3 175/2/3
f 179/3/3 178/3/3 177/3/3
f 180/3/3 178/3/3 179/3/3
f 183/2/3 182/2/3 181/2/3
f 184/2/3 182/2/3 183/2/3
f 187/3/3 186/3/3 185/3/3
f 188/3/3 186/3/3 187/3/3
f 192/2/3 190/2/3 189/2/3
f 193/3/3 191/3/3 190/3/3
f 193/2/3 190/2/3 192/2/3
f 194/3/3 191/3/3 193/3/3
f 195/3/3 193/3/3 192/3/3
f 196/2/3 194/2/3 193/2/3
f 196/3/3 193/3/3 195/3/3
f 197/2/3 194/2/3 196/2/3
f 200/3/3 199/3/3 198/3/3
f 201/3/3 199/3/3 200/3/3
f 204/2/3 203/2/3 202/2/3
f 205/2/3 203/2/3 204/2/3
f 208/3/3 207/3/3 206/3/3
f 209/3/3 207/3/3 208/3/3
f 212/2/3 211/2/3 210/2/3
f 213/2/3 211/2/3 212/2/3
f 214/1/4 215/1/4 216/1/4
f 216/1/4 215/1/4 217/1/4
f 214/1/4 216/1/4 218/1/4
f 217/1/4 215/1/4 219/1/4
f 214/1/4 218/1/4 220/1/4
f 218/1/4 219/1/4 220/1/4
f 219/1/4 215/1/4 221/1/4
f 220/1/4 219/1/4 221/1/4
f 222/1/4 223/1/4 224/1/4
f 224/1/4 223/1/4 225/1/4
f 222/1/4 224/1/4 226/1/4
f 225/1/4 223/1/4 227/1/4
f 222/1/4 226/1/4 228/1/4
f 226/1/4 227/1/4 228/1/4
f 227/1/4 223/1/4 229/1/4
f 228/1/4 227/1/4 229/1/4
f 230/2/4 231/2/4 232/2/4
f 232/2/4 231/2/4 233/2/4
f 234/3/4 235/3/4 236/3/4
f 236/3/4 235/3/4 237/3/4
f 238/2/4 239/2/4 240/2/4
f 240/2/4 239/2/4 241/2/4
f 242/3/4 243/3/4 244/3/4
f 244/3/4 243/3/4 245/3/4
f 246/2/4 247/2/4 248/2/4
f 248/2/4 247/2/4 249/2/4
f 250/3/4 251/3/4 252/3/4
f 252/3/4 251/3/4 253/3/4
f 254/2/4 255/2/4 256/2/4
f 256/2/4 255/2/4 257/2/4
f 258/3/4 259/3/4 260/3/4
f 260/3/4 259/3/4 261/3/4
f 262/2/4 263/2/4 264/2/4
f 264/2/4 263/2/4 265/2/4
f 266/3/4 267/3/4 268/3/4
f 268/3/4 267/3/4 269/3/4
f 270/2/4 271/2/4 272/2/4
f 272/2/4 271/2/4 273/2/4
f 274/3/4 275/3/4 276/3/4
f 276/3/4 275/3/4 277/3/4
f 278/2/4 279/2/4 281/2/4
f 279/3/4 280/3/4 282/3/4
f 281/2/4 279/2/4 282/2/4
f 282/3/4 280/3/4 283/3/4
f 281/3/4 282/3/4 284/3/4
f 282/2/4 283/2/4 285/2/4
f 284/3/4 282/3/4 285/3/4
f 285/2/4 283/2/4 286/2/4
f 287/3/4 288/3/4 289/3/4
f 289/3/4 288/3/4 290/3/4
f 291/2/4 292/2/4 293/2/4
f 293/2/4 292/2/4 294/2/4
f 295/3/4 296/3/4 297/3/4
f 297/3/4 296/3/4 298/3/4
f 299/2/4 300/2/4 301/2/4
f 301/2/4 300/2/4 302/2/4
f 307/1/5 304/1/5 303/1/5
f 308/1/5 304/1/5 307/1/5
f 309/1/5 306/1/5 305/1/5
f 310/1/5 306/1/5 309/1/5
f 315/2/5 312/2/5 311/2/5
f 318/3/5 314/3/5 313/3/5
f 319/2/5 316/2/5 315/2/5
f 319/2/5 315/2/5 311/2/5
f 320/2/5 316/2/5 319/2/5
f 321/2/5 316/2/5 320/2/5
f 324/3/5 318/3/5 317/3/5
f 325/3/5 314/3/5 318/3/5
f 325/3/5 318/3/5 324/3/5
f 326/3/5 314/3/5 325/3/5
f 327/2/5 322/2/5 321/2/5
f 327/2/5 321/2/5 320/2/5
f 328/2/5 322/2/5 327/2/5
f 329/2/5 322/2/5 328/2/5
f 332/3/5 324/3/5 323/3/5
f 332/3/5 325/3/5 324/3/5
f 333/3/5 325/3/5 332/3/5
f 334/3/5 325/3/5 333/3/5
f 335/2/5 330/2/5 329/2/5
f 335/2/5 329/2/5 328/2/5
f 336/2/5 330/2/5 335/2/5
f 337/2/5 330/2/5 336/2/5
f 340/3/5 333/3/5 332/3/5
f 340/3/5 332/3/5 331/3/5
f 341/3/5 333/3/5 340/3/5
f 342/3/5 333/3/5 341/3/5
f 343/2/5 338/2/5 337/2/5
f 343/2/5 337/2/5 336/2/5
f 344/2/5 338/2/5 343/2/5
f 345/2/5 338/2/5 344/2/5
f 347/3/5 341/3/5 340/3/5
f 347/3/5 340/3/5 339/3/5
f 348/3/5 341/3/5 347/3/5
f 349/3/5 341/3/5 348/3/5
f 350/2/5 346/2/5 345/2/5
f 350/2/5 345/2/5 344/2/5
f 351/2/5 346/2/5 350/2/5
f 352/3/5 348/3/5 347/3/5
f 352/3/5 347/3/5 346/3/5
f 353/3/5 348/3/5 352/3/5
f 354/2/5 346/2/5 351/2/5
f 355/2/5 346/2/5 354/2/5
f 356/3/5 352/3/5 346/3/5
f 357/3/5 352/3/5 356/3/5
f 358/2/5 346/2/5 355/2/5
f 359/3/5 356/3/5 346/3/5
f 359/2/5 346/2/5 358/2/5
f 360/3/5 356/3/5 359/3/5
f 367/3/5 362/3/5 361/3/5
f 367/3/5 363/3/5 362/3/5
f 368/2/5 366/2/5 365/2/5
f 368/2/5 365/2/5 364/2/5
f 369/3/5 367/3/5 361/3/5
f 370/3/5 367/3/5 369/3/5
f 371/2/5 366/2/5 368/2/5
f 372/2/5 366/2/5 371/2/5
f 373/3/5 369/3/5 361/3/5
f 374/3/5 369/3/5 373/3/5
f 375/2/5 366/2/5 372/2/5
f 376/2/5 366/2/5 375/2/5
f 377/2/6 378/2/6 381/2/6
f 379/3/6 380/3/6 384/3/6
f 381/2/6 382/2/6 385/2/6
f 377/2/6 381/2/6 385/2/6
f 385/2/6 382/2/6 386/2/6
f 386/2/6 382/2/6 387/2/6
f 383/3/6 384/3/6 390/3/6
f 384/3/6 380/3/6 391/3/6
f 390/3/6 384/3/6 391/3/6
f 391/3/6 380/3/6 392/3/6
f 387/2/6 388/2/6 393/2/6
f 386/2/6 387/2/6 393/2/6
f 393/2/6 388/2/6 394/2/6
f 394/2/6 388/2/6 395/2/6
f 389/3/6 390/3/6 398/3/6
f 390/3/6 391/3/6 398/3/6
f 398/3/6 391/3/6 399/3/6
f 399/3/6 391/3/6 400/3/6
f 395/2/6 396/2/6 401/2/6
f 394/2/6 395/2/6 401/2/6
f 401/2/6 396/2/6 402/2/6
f 402/2/6 396/2/6 403/2/6
f 398/3/6 399/3/6 406/3/6
f 397/3/6 398/3/6 406/3/6
f 406/3/6 399/3/6 407/3/6
f 407/3/6 399/3/6 408/3/6
f 403/2/6 404/2/6 409/2/6
f 402/2/6 403/2/6 409/2/6
f 409/2/6 404/2/6 410/2/6
f 410/2/6 404/2/6 411/2/6
f 406/3/6 407/3/6 412/3/6
f 405/3/6 406/3/6 412/3/6
f 412/3/6 407/3/6 413/3/6
f 413/3/6 407/3/6 414/3/6
f 410/2/6 411/2/6 415/2/6
f 415/2/6 411/2/6 416/2/6
f 416/2/6 411/2/6 417/2/6
f 412/3/6 413/3/6 418/3/6
f 418/3/6 413/3/6 419/3/6
f 419/3/6 413/3/6 420/3/6
f 421/1/6 422/1/6 425/1/6
f 425/1/6 422/1/6 426/1/6
f 423/1/6 424/1/6 427/1/6
f 427/1/6 424/1/6 428/1/6
f 429/3/6 430/3/6 433/3/6
f 430/2/6 431/2/6 434/2/6
f 432/3/6 433/3/6 437/3/6
f 434/2/6 435/2/6 438/2/6
f 436/3/6 437/3/6 440/3/6
f 433/3/6 430/3/6 440/3/6
f 437/3/6 433/3/6 440/3/6
f 438/2/6 439/2/6 441/2/6
f 440/3/6 430/3/6 441/3/6
f 434/2/6 438/2/6 441/2/6
f 430/2/6 434/2/6 441/2/6
f 441/2/6 439/2/6 442/2/6
f 436/3/6 440/3/6 443/3/6
f 443/3/6 440/3/6 444/3/6
f 442/2/6 439/2/6 445/2/6
f 445/2/6 439/2/6 446/2/6
f 436/3/6 443/3/6 447/3/6
f 447/3/6 443/3/6 448/3/6
f 446/2/6 439/2/6 449/2/6
f 449/2/6 439/2/6 450/2/6
